<mxfile host="app.diagrams.net" modified="2024-05-08T14:22:55.096Z" agent="Mozilla/5.0 (Windows NT 10.0; Win64; x64) AppleWebKit/537.36 (KHTML, like Gecko) Chrome/123.0.0.0 Safari/537.36 OPR/109.0.0.0 (Edition Yx GX 03)" version="24.3.1" etag="lQLvLc0IEe2Dp0NJiWu2" type="github">
  <diagram name="Страница — 1" id="xpo5S8Vr6aSPd4bd3f2N">
    <mxGraphModel>
      <root>
        <mxCell id="0" />
        <mxCell id="1" parent="0" />
      </root>
    </mxGraphModel>
  </diagram>
</mxfile>
